<svg width="59" height="45" viewBox="0 0 55 36" fill="none" xmlns="http://www.w3.org/2000/svg">
    <path d="M9.4834 14L8.55176 10.9414H3.86719L2.93555 14H0L4.53516 1.09766H7.86621L12.4189 14H9.4834ZM7.90137 8.65625C7.04004 5.88477 6.55371 4.31738 6.44238 3.9541C6.33691 3.59082 6.26074 3.30371 6.21387 3.09277C6.02051 3.84277 5.4668 5.69727 4.55273 8.65625H7.90137ZM23.715 1.15039H26.466L22.0978 14H19.1271L14.7677 1.15039H17.5187L19.9357 8.79688C20.0705 9.24805 20.2082 9.77539 20.3488 10.3789C20.4953 10.9766 20.5861 11.3926 20.6213 11.627C20.6857 11.0879 20.9054 10.1445 21.2804 8.79688L23.715 1.15039ZM35.389 14H32.6644V3.41797H29.1751V1.15039H38.8782V3.41797H35.389V14ZM54.8589 7.55762C54.8589 9.68457 54.3315 11.3193 53.2768 12.4619C52.2221 13.6045 50.7104 14.1758 48.7417 14.1758C46.7729 14.1758 45.2612 13.6045 44.2065 12.4619C43.1518 11.3193 42.6245 9.67871 42.6245 7.54004C42.6245 5.40137 43.1518 3.76953 44.2065 2.64453C45.2671 1.51367 46.7846 0.948242 48.7593 0.948242C50.7339 0.948242 52.2427 1.5166 53.2856 2.65332C54.3345 3.79004 54.8589 5.4248 54.8589 7.55762ZM45.4809 7.55762C45.4809 8.99316 45.7534 10.0742 46.2983 10.8008C46.8432 11.5273 47.6577 11.8906 48.7417 11.8906C50.9155 11.8906 52.0024 10.4463 52.0024 7.55762C52.0024 4.66309 50.9214 3.21582 48.7593 3.21582C47.6753 3.21582 46.8579 3.58203 46.3071 4.31445C45.7563 5.04102 45.4809 6.12207 45.4809 7.55762Z" fill="#48494D"/>
    <path d="M4.63965 35L1.74121 26.6533H1.68652C1.764 27.8929 1.80273 29.055 1.80273 30.1396V35H0.319336V25.0059H2.62305L5.39844 32.9561H5.43945L8.29688 25.0059H10.6074V35H9.03516V30.0576C9.03516 29.5609 9.04655 28.9137 9.06934 28.1162C9.09668 27.3187 9.11947 26.8356 9.1377 26.667H9.08301L6.08203 35H4.63965ZM23.9323 29.9893C23.9323 31.6162 23.5244 32.8809 22.7087 33.7832C21.8975 34.6855 20.7468 35.1367 19.2565 35.1367C17.7481 35.1367 16.5882 34.6901 15.777 33.7969C14.9704 32.8991 14.5671 31.6253 14.5671 29.9756C14.5671 28.3258 14.9727 27.0589 15.7839 26.1748C16.5996 25.2907 17.7617 24.8486 19.2702 24.8486C20.7559 24.8486 21.9043 25.2975 22.7155 26.1953C23.5267 27.0931 23.9323 28.3577 23.9323 29.9893ZM16.3034 29.9893C16.3034 31.2197 16.5518 32.154 17.0485 32.792C17.5453 33.4255 18.2813 33.7422 19.2565 33.7422C20.2272 33.7422 20.9587 33.4277 21.4509 32.7988C21.9476 32.1699 22.196 31.2334 22.196 29.9893C22.196 28.7633 21.9499 27.8337 21.4577 27.2002C20.9701 26.5667 20.2409 26.25 19.2702 26.25C18.2904 26.25 17.5498 26.5667 17.0485 27.2002C16.5518 27.8337 16.3034 28.7633 16.3034 29.9893ZM31.3509 35H29.7171V26.4072H26.7777V25.0059H34.2904V26.4072H31.3509V35ZM46.5215 29.9893C46.5215 31.6162 46.1136 32.8809 45.2979 33.7832C44.4867 34.6855 43.336 35.1367 41.8457 35.1367C40.3373 35.1367 39.1774 34.6901 38.3662 33.7969C37.5596 32.8991 37.1563 31.6253 37.1563 29.9756C37.1563 28.3258 37.5619 27.0589 38.3731 26.1748C39.1888 25.2907 40.3509 24.8486 41.8594 24.8486C43.3451 24.8486 44.4935 25.2975 45.3047 26.1953C46.1159 27.0931 46.5215 28.3577 46.5215 29.9893ZM38.8926 29.9893C38.8926 31.2197 39.141 32.154 39.6377 32.792C40.1345 33.4255 40.8705 33.7422 41.8457 33.7422C42.8164 33.7422 43.5479 33.4277 44.0401 32.7988C44.5368 32.1699 44.7852 31.2334 44.7852 29.9893C44.7852 28.7633 44.5391 27.8337 44.0469 27.2002C43.5593 26.5667 42.8301 26.25 41.8594 26.25C40.8796 26.25 40.139 26.5667 39.6377 27.2002C39.141 27.8337 38.8926 28.7633 38.8926 29.9893Z" fill="#48494D"/>
</svg>
