<svg width="40" height="40" viewBox="0 0 40 40" fill="none" xmlns="http://www.w3.org/2000/svg">
    <g opacity="0.5">
        <path d="M11.1943 20H28.8057" stroke="#48494D" stroke-width="1.5"/>
        <path d="M11.1943 20H28.8057" stroke="#48494D" stroke-width="1.5" stroke-miterlimit="10" stroke-linecap="round" stroke-linejoin="round"/>
        <path d="M20 14.5297V25.4707" stroke="#48494D" stroke-width="1.5"/>
        <path d="M20 14.5297V25.4707" stroke="#48494D" stroke-width="1.5" stroke-miterlimit="10" stroke-linecap="round" stroke-linejoin="round"/>
        <path d="M28.8058 14.5297V20.0003" stroke="#48494D" stroke-width="1.5"/>
        <path d="M28.8058 14.5297V20.0003" stroke="#48494D" stroke-width="1.5" stroke-miterlimit="10" stroke-linecap="round" stroke-linejoin="round"/>
        <path d="M11.1943 14.5297V25.4713" stroke="#48494D" stroke-width="1.5"/>
        <path d="M11.1943 14.5297V25.4713" stroke="#48494D" stroke-width="1.5" stroke-miterlimit="10" stroke-linecap="round" stroke-linejoin="round"/>
        <path d="M11.1943 14.5295C12.6778 14.5295 13.8805 13.3269 13.8805 11.8433C13.8805 10.3598 12.6778 9.1571 11.1943 9.1571C9.71071 9.1571 8.50806 10.3598 8.50806 11.8433C8.50806 13.3269 9.71071 14.5295 11.1943 14.5295Z" stroke="#48494D" stroke-width="1.5" stroke-miterlimit="10" stroke-linecap="round" stroke-linejoin="round"/>
        <path d="M19.9998 14.5295C21.4833 14.5295 22.686 13.3269 22.686 11.8433C22.686 10.3598 21.4833 9.1571 19.9998 9.1571C18.5163 9.1571 17.3136 10.3598 17.3136 11.8433C17.3136 13.3269 18.5163 14.5295 19.9998 14.5295Z" stroke="#48494D" stroke-width="1.5" stroke-miterlimit="10" stroke-linecap="round" stroke-linejoin="round"/>
        <path d="M28.8061 14.5295C30.2896 14.5295 31.4923 13.3269 31.4923 11.8433C31.4923 10.3598 30.2896 9.1571 28.8061 9.1571C27.3225 9.1571 26.1199 10.3598 26.1199 11.8433C26.1199 13.3269 27.3225 14.5295 28.8061 14.5295Z" stroke="#48494D" stroke-width="1.5" stroke-miterlimit="10" stroke-linecap="round" stroke-linejoin="round"/>
        <path d="M11.1943 30.8429C12.6778 30.8429 13.8805 29.6402 13.8805 28.1567C13.8805 26.6731 12.6778 25.4705 11.1943 25.4705C9.71071 25.4705 8.50806 26.6731 8.50806 28.1567C8.50806 29.6402 9.71071 30.8429 11.1943 30.8429Z" stroke="#48494D" stroke-width="1.5" stroke-miterlimit="10" stroke-linecap="round" stroke-linejoin="round"/>
        <path d="M19.9998 30.8429C21.4833 30.8429 22.686 29.6402 22.686 28.1567C22.686 26.6731 21.4833 25.4705 19.9998 25.4705C18.5163 25.4705 17.3136 26.6731 17.3136 28.1567C17.3136 29.6402 18.5163 30.8429 19.9998 30.8429Z" stroke="#48494D" stroke-width="1.5" stroke-miterlimit="10" stroke-linecap="round" stroke-linejoin="round"/>
    </g>
</svg>
