<svg width="40" height="40" viewBox="0 0 40 40" fill="none" xmlns="http://www.w3.org/2000/svg">
    <g opacity="0.5">
        <path d="M34.0867 17.312C33.9151 17.312 33.7432 17.2462 33.6124 17.1152L26.811 10.3142C26.5493 10.0522 26.5493 9.62751 26.811 9.36548C27.0731 9.1036 27.4979 9.1036 27.7599 9.36548L34.5603 16.1661C34.8223 16.428 34.8223 16.8527 34.5603 17.1147C34.4303 17.2457 34.2603 17.3117 34.0869 17.3117" fill="#48494D"/>
        <path d="M32.4739 18.9248C32.3024 18.9248 32.1305 18.8592 31.9996 18.7282L25.199 11.9275C24.9369 11.6654 24.9369 11.2408 25.199 10.9788C25.461 10.7167 25.8858 10.7167 26.1479 10.9788L32.9482 17.7794C33.2103 18.0415 33.2103 18.4661 32.9482 18.7282C32.8172 18.8592 32.6455 18.9248 32.4739 18.9248" fill="#48494D"/>
        <path d="M30.9287 20.4701C30.7569 20.4701 30.5853 20.4046 30.4541 20.2734L23.6538 13.4728C23.3918 13.2107 23.3918 12.7861 23.6538 12.524C23.9159 12.2622 24.3403 12.2622 24.6024 12.524L31.403 19.3247C31.6651 19.5868 31.6651 20.0115 31.403 20.2733C31.2717 20.4046 31.1004 20.4699 30.9287 20.4699" fill="#48494D"/>
        <path d="M22.5467 18.2564C22.3748 18.2564 22.2033 18.1906 22.0724 18.0596C21.8103 17.7977 21.8103 17.3731 22.0724 17.111L24.95 14.2333C25.212 13.9714 25.6365 13.9714 25.8986 14.2333C26.1606 14.4953 26.1606 14.92 25.8986 15.182L23.0206 18.0597C22.8899 18.1907 22.7179 18.2563 22.5466 18.2563" fill="#48494D"/>
        <path d="M26.3415 22.0514C26.1696 22.0514 25.9981 21.986 25.8672 21.8548C25.6051 21.5927 25.6051 21.1682 25.8672 20.9062L28.7448 18.0284C29.0068 17.7666 29.4316 17.7666 29.6937 18.0284C29.9557 18.2905 29.9557 18.7151 29.6937 18.9772L26.8158 21.8548C26.6851 21.9861 26.5131 22.0514 26.3414 22.0514" fill="#48494D"/>
        <path d="M32.1685 13.6347C31.6506 14.1528 30.8108 14.1528 30.2928 13.6347C29.7746 13.1166 29.7746 12.277 30.2928 11.759C30.8107 11.241 31.6506 11.241 32.1685 11.759C32.6865 12.277 32.6865 13.1167 32.1685 13.6347Z" fill="#48494D"/>
        <path d="M5.91303 17.3044C5.74132 17.3044 5.5696 17.2386 5.4386 17.1076C5.17672 16.8457 5.17672 16.4211 5.4386 16.1591L12.2393 9.3584C12.5015 9.09635 12.9263 9.09635 13.1882 9.3584C13.4502 9.62028 13.4502 10.0449 13.1882 10.307L6.38716 17.1076C6.25616 17.2383 6.0845 17.3043 5.91283 17.3043" fill="#48494D"/>
        <path d="M7.52606 18.9171C7.35434 18.9171 7.18279 18.8513 7.05176 18.7203C6.78971 18.4584 6.78971 18.0336 7.05176 17.7717L13.8524 10.9711C14.1145 10.7092 14.5391 10.7092 14.8012 10.9711C15.063 11.2331 15.063 11.6578 14.8012 11.9198L8.00049 18.7205C7.86949 18.8515 7.69782 18.9171 7.52616 18.9171" fill="#48494D"/>
        <path d="M9.07135 20.4627C8.8998 20.4627 8.72808 20.397 8.59705 20.2661C8.335 20.0041 8.335 19.5794 8.59705 19.3174L15.3977 12.5167C15.6598 12.2547 16.0844 12.2547 16.3464 12.5167C16.6085 12.7788 16.6085 13.2034 16.3464 13.4653L9.54611 20.266C9.41511 20.3966 9.24311 20.4626 9.07145 20.4626" fill="#48494D"/>
        <path d="M13.6583 22.0441C13.4866 22.0441 13.3148 21.9783 13.1838 21.8475L10.3059 18.9697C10.0439 18.7078 10.0439 18.283 10.3059 18.0211C10.5683 17.7591 10.9929 17.7591 11.255 18.0211L14.1326 20.8989C14.3946 21.1606 14.3946 21.5857 14.1326 21.8475C14.0016 21.9785 13.8299 22.0441 13.6582 22.0441" fill="#48494D"/>
        <path d="M17.4537 18.2488C17.282 18.2488 17.1103 18.1832 16.9793 18.0522L14.1013 15.1744C13.8393 14.9125 13.8393 14.4877 14.1013 14.2258C14.3637 13.9638 14.7883 13.9638 15.0504 14.2258L17.928 17.1034C18.19 17.3655 18.19 17.7901 17.928 18.0522C17.797 18.1832 17.625 18.2488 17.4537 18.2488" fill="#48494D"/>
        <path d="M9.7077 11.7514C10.2256 12.2693 10.2256 13.109 9.7077 13.6271C9.18963 14.145 8.34996 14.145 7.83203 13.6271C7.31396 13.109 7.31396 12.2693 7.83203 11.7514C8.3497 11.2334 9.18936 11.2334 9.7077 11.7514Z" fill="#48494D"/>
        <path d="M20.0041 31.418C18.084 31.418 16.1638 30.6872 14.7021 29.2253C11.7788 26.3018 11.7788 21.545 14.7021 18.6213C17.6258 15.6973 22.3828 15.6973 25.3061 18.6213C28.23 21.5448 28.23 26.3017 25.3061 29.2253C23.8441 30.6873 21.9241 31.418 20.0041 31.418V31.418ZM20.0041 17.77C18.4273 17.77 16.851 18.3699 15.6511 19.5703C13.2507 21.9705 13.2507 25.8763 15.6511 28.2766C18.0514 30.677 21.9568 30.677 24.3575 28.2766C26.7579 25.8766 26.7579 21.9706 24.3575 19.5703C23.1575 18.37 21.5801 17.77 20.0041 17.77V17.77ZM24.8315 28.751H24.8328H24.8314H24.8315Z" fill="#48494D"/>
        <path d="M12.0903 26.5423H10.8206C9.89447 26.5423 9.14087 25.7891 9.14087 24.8626V22.9675C9.14087 22.0414 9.89444 21.2881 10.8206 21.2881H12.0903C13.0165 21.2881 13.7698 22.0414 13.7698 22.9675V24.8626C13.7698 25.789 13.0165 26.5423 12.0901 26.5423L12.0903 26.5423ZM10.8205 22.6296C10.6374 22.6296 10.4827 22.7842 10.4827 22.9675V24.8627C10.4827 25.046 10.6374 25.2003 10.8205 25.2003H12.0902C12.2734 25.2003 12.4281 25.046 12.4281 24.8627V22.9675C12.4281 22.7843 12.2734 22.6296 12.0902 22.6296H10.8205H10.8205Z" fill="#48494D"/>
    </g>
</svg>
