<svg width="122" height="30" viewBox="0 0 122 30" fill="none" xmlns="http://www.w3.org/2000/svg">
    <rect width="122" height="30" fill="#D12136"/>
    <path d="M34.2758 18H32.8451L29.3344 12.3115H29.2953L29.3197 12.6289C29.3653 13.2344 29.3881 13.7878 29.3881 14.2891V18H28.3285V10.8613H29.7445L33.2455 16.5205H33.2748C33.2683 16.4456 33.2553 16.1738 33.2357 15.7051C33.2162 15.2331 33.2064 14.8652 33.2064 14.6016V10.8613H34.2758V18ZM40.8986 18H36.8605V10.8613H40.8986V11.8477H38.0275V13.791H40.718V14.7676H38.0275V17.0088H40.8986V18ZM49.7334 18H48.4639L47.2529 13.7422C47.2008 13.5566 47.1357 13.2897 47.0576 12.9414C46.9795 12.5898 46.9323 12.3457 46.916 12.209C46.8835 12.4173 46.8298 12.6875 46.7549 13.0195C46.6833 13.3516 46.623 13.599 46.5742 13.7617L45.3926 18H44.123L43.2002 14.4258L42.2627 10.8613H43.4541L44.4746 15.0215C44.6341 15.6888 44.748 16.278 44.8164 16.7891C44.8522 16.5124 44.9059 16.2031 44.9775 15.8613C45.0492 15.5195 45.1143 15.2428 45.1729 15.0312L46.335 10.8613H47.4922L48.6836 15.0508C48.7975 15.4382 48.918 16.0176 49.0449 16.7891C49.0938 16.3236 49.2109 15.7311 49.3965 15.0117L50.4121 10.8613H51.5938L49.7334 18ZM59.693 18L57.6227 12.0381H57.5836C57.6389 12.9235 57.6666 13.7536 57.6666 14.5283V18H56.607V10.8613H58.2525L60.235 16.54H60.2643L62.3053 10.8613H63.9557V18H62.8326V14.4697C62.8326 14.1149 62.8408 13.6527 62.857 13.083C62.8766 12.5133 62.8928 12.1683 62.9059 12.0479H62.8668L60.7232 18H59.693ZM72.8734 14.4209C72.8734 15.583 72.5821 16.4863 71.9994 17.1309C71.42 17.7754 70.598 18.0977 69.5336 18.0977C68.4561 18.0977 67.6277 17.7786 67.0482 17.1406C66.4721 16.4993 66.184 15.5895 66.184 14.4111C66.184 13.2327 66.4737 12.3278 67.0531 11.6963C67.6358 11.0648 68.4659 10.749 69.5434 10.749C70.6046 10.749 71.4249 11.0697 72.0043 11.7109C72.5837 12.3522 72.8734 13.2555 72.8734 14.4209ZM67.4242 14.4209C67.4242 15.2998 67.6016 15.9671 67.9564 16.4229C68.3113 16.8753 68.837 17.1016 69.5336 17.1016C70.227 17.1016 70.7494 16.877 71.101 16.4277C71.4558 15.9785 71.6332 15.3096 71.6332 14.4209C71.6332 13.5452 71.4574 12.8812 71.1059 12.4287C70.7576 11.9762 70.2367 11.75 69.5434 11.75C68.8435 11.75 68.3145 11.9762 67.9564 12.4287C67.6016 12.8812 67.4242 13.5452 67.4242 14.4209ZM80.9123 14.3623C80.9123 15.5407 80.5852 16.4424 79.9309 17.0674C79.2766 17.6891 78.3342 18 77.1037 18H75.1066V10.8613H77.3137C78.4497 10.8613 79.3335 11.1673 79.965 11.7793C80.5966 12.3913 80.9123 13.2523 80.9123 14.3623ZM79.6818 14.4014C79.6818 12.6924 78.8827 11.8379 77.2844 11.8379H76.2736V17.0186H77.1037C78.8225 17.0186 79.6818 16.1462 79.6818 14.4014ZM87.1885 18H83.1504V10.8613H87.1885V11.8477H84.3174V13.791H87.0078V14.7676H84.3174V17.0088H87.1885V18ZM89.4363 18V10.8613H90.6033V16.999H93.6258V18H89.4363Z" fill="white"/>
</svg>
